# xmcd CD database file
#
# Track frame offsets:
#	150
#	24960
#	42885
#	58487
#	81455
#	105417
#	120537
#	145337
#	162700
#
# Disc length: 2614 seconds
#
# Revision: 0
# Processed by: cddbd v1.5.1PL2 Copyright (c) Steve Scherf et al.
# Submitted via: CDex 1.51
#
DISCID=7b0a3409
DTITLE=Scott Rhodes - Keys Of Romance
DYEAR=1900
DGENRE=New Age
TTITLE0=Longing
TTITLE1=Across Time
TTITLE2=The Beloved
TTITLE3=By Your Side
TTITLE4=Stream of Essence
TTITLE5=Gentle One
TTITLE6=Taking Flight
TTITLE7=Echo Of Dawn
TTITLE8=Into Light
EXTD=
EXTT0=
EXTT1=
EXTT2=
EXTT3=
EXTT4=
EXTT5=
EXTT6=
EXTT7=
EXTT8=
PLAYORDER=
